@startuml editarPublicacion

skinparam linetype polyline

state editarPublicacion as "editarPublicacion()" {

    state " " as EditandoPublicacion
    state " " as ValidandoDatos

    [*] -[#green]-> EditandoPublicacion
    note on link
    <b>Investigador</b> solicita editar su publicacion
    end note

    EditandoPublicacion -[#green]-> ValidandoDatos
    note on link
    <b>Investigador</b> solicita guardar la publicacion con los cambios
    <b>Sistema</b> valida los datos introducidos
    end note

    ValidandoDatos -[#red]-> EditandoPublicacion
    note on link
    Datos de publicacion no válidos
    <b>Sistema</b> muestra mensajes de error
    • Titulo de publicacion erroneo
    • Formato incorrecto en algún campo
    end note

    ValidandoDatos -[#green]-> [*]
    note on link
    Publicacion valida
    <b>Sistema</b> gurarda la publicaion modificada
    end note
}

editarPublicacion -[#green]-> MI_PUBLICACION_ABIERTA
note on link
publicacion editada
end note

editarPublicacion -[#green]-> MIS_PUBLICACIONES_ABIERTAS
note on link
eliminarPublicacion()
end note

editarPublicacion -[#green]-> MIS_PUBLICACIONES_ABIERTAS
note on link
abrirMisPublicaciones()
end note

@enduml