@startuml abrirInvestigadores

skinparam linetype polyline

state abrirInvestigadores as "abrirInvestigadores()" {

    state " " as MostrandoLista
    state " " as FiltrandoLista

    [*] -[#green]-> MostrandoLista 
    note on link
    <b>Coordinador</b> solicita abrir investigadores
    end note    
    
    MostrandoLista -[#green]-> FiltrandoLista
    note on link
    <b>Sistema</b> presenta lista de investigadores
    • ID, nombre, campo de cada investigador
    • Permite solicitar filtrar lista
    • Permite solicitar abrir investigador
    • Permite solicitar crear investigador nuevo
    
    end note
    
    FiltrandoLista -[#green]-> FiltrandoLista
    note on link
    <b>Coordinador</b> solicita filtrar lista
    <b>Sistema</b> presenta lista filtrada
    end note
    
    FiltrandoLista -[#green]-> [*]
    note on link
    <b>Coordinador</b> solicita una de las opciones
    end note
}

abrirInvestigadores -[#green]-> INVESTIGADOR_ABIERTO
note on link
abrirInvestigador()
end note

abrirInvestigadores -[#green]-> INVESTIGADOR_ABIERTO
note on link
crearInvestigador()
end note


abrirInvestigadores -[#green]-> PANEL_PRINCIPAL_ABIERTO
note on link
abrirPanelPrincipal()
end note

@enduml
