@startuml abrirConvocatorias
skinparam linetype polyline

state in1 as "PANEL_PRINCIPAL_ABIERTO"
in1 -[#green]-> abrirConvocatorias

state in2 as "CONVOCATORIA_ABIERTA"
in2 -[#green]-> abrirConvocatorias

state abrirConvocatorias as "abrirConvocatorias()" {

    state " " as CargandoListado
    state " " as MostrandoConvocatorias

    [*] -[#green]-> CargandoListado
    note on link
    <b>Coordinador</b> selecciona "Convocatorias"
    end note

    CargandoListado -[#green]-> MostrandoConvocatorias
    note on link
    <b>Sistema</b> carga convocatorias
    <b>Sistema</b> muestra el listado de convocatorias
    end note

    CargandoListado -[#red]-> [*]
    note on link
    <b>Sistema</b> no puede cargar el listado (error)
    <b>Sistema</b> informa del problema y mantiene la navegación anterior
    end note

    MostrandoConvocatorias -[#green]-> [*]
    note on link
    <b>Coordinador</b> puede filtrar/buscar o abrir una convocatoria
    end note
}

abrirConvocatorias -[#green]-> CONVOCATORIAS_ABIERTAS
note on link
Listado de convocatorias mostrado
end note

abrirConvocatorias -[#green]-> CONVOCATORIA_ABIERTA
note on link
abrirConvocatoria()
end note

abrirConvocatorias -[#green]-> PANEL_PRINCIPAL_ABIERTO
note on link
abrirPanelPrincipal()
end note

@enduml
