@startuml editarCargaTrabajo

skinparam linetype polyline

state editarCargaTrabajo as "editarCargaTrabajo()" {

    state " " as AbrirCargaDeTrabajo
    state " " as ValidandoDatos

    [*] -[#green]-> AbrirCargaDeTrabajo
    note on link
    <b>Investigador</b> solicita editar su carga de trabajo
    end note

    AbrirCargaDeTrabajo -[#green]-> ValidandoDatos
    note on link
    <b>Investigador</b> solicita guardar su nueva carga de trabajo
    <b>Sistema</b> valida los datos introducidos
    end note

    ValidandoDatos -[#red]-> AbrirCargaDeTrabajo
    note on link
    Datos de carga de trabajo no válidos
    <b>Sistema</b> muestra mensajes de error
    • Carga de trabajo menor a lo requerido
    end note

    ValidandoDatos -[#green]-> [*]
    note on link
    Carga de trabajo válido
    <b>Sistema</b> gurarda la carga de trabajo modificada
    end note
}

editarCargaTrabajo -[#green]-> OPCIONES_CARGA_TRABAJO_ABIERTAS
note on link
carga de trabajo editada
end note

editarCargaTrabajo -[#green]-> PERFIL
note on link
abrirPerfil()
end note

@enduml