@startuml editarPerfil

skinparam linetype polyline

state editarPerfil as "editarPerfil()" {

    state " " as MostrandoPerfil
    state " " as EditandoPerfil
    state " " as ValidandoCambios

    [*] -[#green]-> MostrandoPerfil
    note on link
    <b>Invstigador</b> solicita editar su perfil
    end note

    MostrandoPerfil -[#green]-> EditandoPerfil
    note on link
    <b>Sistema</b> presenta datos a modificar del perfil
    • Nombre
    • Apellidos
    • Correo
    • Numero de telefono
    end note

    EditandoPerfil -[#green]-> ValidandoCambios
    note on link
    <b>Invstigador</b> solicita guardar cambios
    <b>Sistema</b> valida la información modificada
    end note

    ValidandoCambios -[#red]-> EditandoPerfil
    note on link
    Cambios no válidos
    <b>Sistema</b> muestra mensajes de error
    • Campos obligatorios vacíos
    • Correo incoherentes
    • Formato incorrecto en algún campo
    end note

    ValidandoCambios -[#green]-> [*]
    note on link
    Cambios válidos
    <b>Sistema</b> actualiza el entregable
    • Guarda la nueva información
    • Muestra el entregable actualizado
    end note
}

editarPerfil -[#green]-> OPCIONES_PERFIL_ABIERTO
note on link
perfil actualizado
end note

editarPerfil -[#green]-> PANEL_PRINCIPAL_ABIERTO
note on link
abrirPanelPrincipal()
end note

@enduml
