@startuml abrirInvestigador

skinparam linetype polyline

state abrirInvestigador as "abrirInvestigador()" {

    state " " as MostrandoLista
    state " " as FiltrandoLista

    [*] -[#green]-> MostrandoLista 
    note on link
    <b>Coordinador</b> solicita abrir investigador
    end note    
    
    MostrandoLista -[#green]-> FiltrandoLista
    note on link
    <b>Sistema</b> presenta perfil de investigador
    • ID, nombre, apellido, campo, dni, carrera, master de investigador
    • Permite solicitar editar perfil
    • Permite solicitar abrirInvestigadores

  
    

    end note
    FiltrandoLista -[#green]-> [*]
    note on link
    <b>Coordinador</b> solicita una de las opciones
    end note
}

abrirInvestigador -[#green]-> OPCIONES_PERFIL_ABIERTO
note on link
abrirOpcionesPerfil()
end note

abrirInvestigador -[#green]-> INVESTIGADORES_ABIERTOS
note on link
abrirInvestigadores()
end note



@enduml
